<svg width="1280" height="640" viewBox="0 0 1280 640" xmlns="http://www.w3.org/2000/svg">
  <defs>
    <linearGradient id="bg" x1="0%" y1="0%" x2="100%" y2="100%">
      <stop offset="0%" style="stop-color:#0a0a0f"/>
      <stop offset="50%" style="stop-color:#0d0d1a"/>
      <stop offset="100%" style="stop-color:#050510"/>
    </linearGradient>
    <linearGradient id="accent1" x1="0%" y1="0%" x2="100%" y2="0%">
      <stop offset="0%" style="stop-color:#ff0050"/>
      <stop offset="100%" style="stop-color:#ff8800"/>
    </linearGradient>
    <filter id="neonGlow">
      <feGaussianBlur stdDeviation="6" result="coloredBlur"/>
      <feMerge>
        <feMergeNode in="coloredBlur"/>
        <feMergeNode in="SourceGraphic"/>
      </feMerge>
    </filter>
  </defs>

  <rect width="1280" height="640" fill="url(#bg)"/>
  <g opacity="0.3">
    <line x1="0" y1="80" x2="1280" y2="80" stroke="#ff0050" stroke-opacity="0.04" stroke-width="0.5"/>
    <line x1="0" y1="160" x2="1280" y2="160" stroke="#ff0050" stroke-opacity="0.04" stroke-width="0.5"/>
    <line x1="0" y1="240" x2="1280" y2="240" stroke="#ff0050" stroke-opacity="0.04" stroke-width="0.5"/>
    <line x1="0" y1="320" x2="1280" y2="320" stroke="#ff0050" stroke-opacity="0.04" stroke-width="0.5"/>
    <line x1="0" y1="400" x2="1280" y2="400" stroke="#ff0050" stroke-opacity="0.04" stroke-width="0.5"/>
    <line x1="0" y1="480" x2="1280" y2="480" stroke="#ff0050" stroke-opacity="0.04" stroke-width="0.5"/>
    <line x1="0" y1="560" x2="1280" y2="560" stroke="#ff0050" stroke-opacity="0.04" stroke-width="0.5"/>
    <line x1="160" y1="0" x2="160" y2="640" stroke="#ff0050" stroke-opacity="0.04" stroke-width="0.5"/>
    <line x1="320" y1="0" x2="320" y2="640" stroke="#ff0050" stroke-opacity="0.04" stroke-width="0.5"/>
    <line x1="480" y1="0" x2="480" y2="640" stroke="#ff0050" stroke-opacity="0.04" stroke-width="0.5"/>
    <line x1="640" y1="0" x2="640" y2="640" stroke="#ff0050" stroke-opacity="0.04" stroke-width="0.5"/>
    <line x1="800" y1="0" x2="800" y2="640" stroke="#ff0050" stroke-opacity="0.04" stroke-width="0.5"/>
    <line x1="960" y1="0" x2="960" y2="640" stroke="#ff0050" stroke-opacity="0.04" stroke-width="0.5"/>
    <line x1="1120" y1="0" x2="1120" y2="640" stroke="#ff0050" stroke-opacity="0.04" stroke-width="0.5"/>
  </g>

  <circle cx="200" cy="320" r="280" fill="url(#accent1)" fill-opacity="0.06"/>
  <circle cx="1080" cy="320" r="280" fill="url(#accent1)" fill-opacity="0.06"/>

  <rect x="0" y="0" width="1280" height="3" fill="url(#accent1)"/>

  <text x="640" y="160" font-family="'Courier New', monospace" font-size="20" fill="#ff0050" fill-opacity="0.2" text-anchor="middle" letter-spacing="5">
    ███████ ███████ ██████  ██████  ██████  ██    ██  █████  ██
  </text>
  <text x="640" y="185" font-family="'Courier New', monospace" font-size="20" fill="#ff0050" fill-opacity="0.2" text-anchor="middle" letter-spacing="5">
    ██      ██      ██   ██ ██   ██ ██   ██  ██  ██  ██   ██ ██
  </text>
  <text x="640" y="210" font-family="'Courier New', monospace" font-size="20" fill="#ff0050" fill-opacity="0.2" text-anchor="middle" letter-spacing="5">
    █████   █████   ██████  ██   ██ ██   ██   ████   ███████ ██
  </text>
  <text x="640" y="235" font-family="'Courier New', monospace" font-size="20" fill="#ff0050" fill-opacity="0.2" text-anchor="middle" letter-spacing="5">
    ██      ██      ██   ██ ██   ██ ██   ██    ██    ██   ██ ██
  </text>
  <text x="640" y="260" font-family="'Courier New', monospace" font-size="20" fill="#ff0050" fill-opacity="0.2" text-anchor="middle" letter-spacing="5">
    ██      ███████ ██   ██ ██████  ██████     ██    ██   ██ ███████
  </text>

  <text x="640" y="330" font-family="'Courier New', monospace" font-size="52" fill="#ff0050" text-anchor="middle" font-weight="bold" filter="url(#neonGlow)">
    ZERODAY
  </text>

  <text x="640" y="380" font-family="'Courier New', monospace" font-size="22" fill="#888899" text-anchor="middle" letter-spacing="4">
    HIJOLUMINIC ZERO-DAY DETECTOR
  </text>

  <text x="640" y="420" font-family="'Courier New', monospace" font-size="16" fill="#ff8800" fill-opacity="0.6" text-anchor="middle" letter-spacing="2">
    100% Detection  .  Zero Training Data  .  Cannot Be Evaded
  </text>

  <rect x="400" y="450" width="480" height="1" fill="url(#accent1)"/>

  <text x="640" y="490" font-family="'Courier New', monospace" font-size="14" fill="#444466" text-anchor="middle">
    github.com/DarkMatter-Security/zeroday
  </text>

  <rect x="40" y="40" width="30" height="2" fill="#ff0050" fill-opacity="0.4"/>
  <rect x="40" y="40" width="2" height="30" fill="#ff0050" fill-opacity="0.4"/>
  <rect x="1240" y="40" width="2" height="30" fill="#ff8800" fill-opacity="0.4"/>
  <rect x="1210" y="40" width="30" height="2" fill="#ff8800" fill-opacity="0.4"/>
  <rect x="40" y="600" width="30" height="2" fill="#ff0050" fill-opacity="0.4"/>
  <rect x="40" y="570" width="2" height="30" fill="#ff0050" fill-opacity="0.4"/>
  <rect x="1240" y="570" width="2" height="30" fill="#ff8800" fill-opacity="0.4"/>
  <rect x="1210" y="600" width="30" height="2" fill="#ff8800" fill-opacity="0.4"/>
</svg>
